<?xml version="1.0" encoding="utf-8"?>
<!-- Generator: Adobe Illustrator 18.1.1, SVG Export Plug-In . SVG Version: 6.00 Build 0)  -->
<!DOCTYPE svg PUBLIC "-//W3C//DTD SVG 1.1//EN" "http://www.w3.org/Graphics/SVG/1.1/DTD/svg11.dtd">
<svg version="1.1" id="Layer_1" xmlns="http://www.w3.org/2000/svg" xmlns:xlink="http://www.w3.org/1999/xlink" x="0px" y="0px"
	 width="70px" height="74px" viewBox="0 0 70 74" enable-background="new 0 0 70 74" xml:space="preserve">
<g>
	<polygon fill="#666666" points="0.3,26.8 1.1,24 1.9,24.2 1.4,26 2.6,26.4 3.1,24.7 3.9,24.9 3.4,26.6 5.7,27.3 5.4,28.3 	"/>
	<rect x="4" y="20.1" transform="matrix(-0.3943 0.919 -0.919 -0.3943 27.1634 27.6227)" fill="#666666" width="1" height="5.3"/>
	<polygon fill="#666666" points="3.2,19.1 3.9,18 8.3,18.3 8.3,18.3 4.9,16.3 5.4,15.4 10,18.2 9.3,19.3 4.9,18.9 4.9,18.9 8.3,21 
		7.8,21.8 	"/>
	<path fill="#666666" d="M9.2,12.5L9.2,12.5l1.1,2l1-1.1L9.2,12.5z M8,12.2l0.8-0.9l5.3,2l-0.8,0.9l-1.2-0.5l-1.4,1.6l0.6,1.2
		l-0.7,0.8L8,12.2z"/>
	<polygon fill="#666666" points="11.8,8.4 12.8,7.6 16.8,9.6 16.8,9.6 14.4,6.4 15.2,5.8 18.4,10.1 17.4,10.8 13.4,8.8 13.4,8.8 
		15.8,12 15,12.6 	"/>
	<g>
		<path fill="#666666" d="M23.2,7.4c-0.3,0.3-0.6,0.5-1,0.7c-1.5,0.8-2.9,0.5-3.8-1.1c-0.8-1.6-0.3-3,1.3-3.8
			C20,3,20.4,2.9,20.9,2.9l0.3,0.8c-0.5,0-0.8,0.1-1.1,0.3c-1,0.5-1.2,1.5-0.7,2.5c0.5,1,1.4,1.4,2.4,0.9c0.4-0.2,0.8-0.5,0.9-0.7
			L23.2,7.4z"/>
	</g>
	<rect x="23.5" y="1.8" transform="matrix(-0.9446 0.3284 -0.3284 -0.9446 48.1196 0.748)" fill="#666666" width="1" height="5.3"/>
	<path fill="#666666" d="M28.2,1.7L28.2,1.7L27.8,4l1.5-0.3L28.2,1.7z M27.4,0.7l1.2-0.2l3,4.9l-1.1,0.2l-0.7-1.1l-2.1,0.4l-0.2,1.3
		l-1.1,0.2L27.4,0.7z"/>
	<polygon fill="#666666" points="32.7,0 33.7,0 33.8,4.5 35.8,4.5 35.8,5.3 32.8,5.4 	"/>
	<g>
		<path fill="#666666" d="M41.3,3.2l0.4,0.1c0.5,0.1,1,0.1,1.1-0.6c0.1-0.6-0.3-0.9-0.8-1l-0.4-0.1L41.3,3.2z M40.9,0.5l1.3,0.3
			c1.1,0.3,2,0.8,1.8,2.1c-0.3,1.2-1.2,1.5-2.3,1.2L41.2,4l-0.5,2l-1-0.2L40.9,0.5z"/>
	</g>
	<polygon fill="#666666" points="46.3,2 47.2,2.4 45.6,6.5 47.5,7.3 47.1,8.1 44.3,6.9 	"/>
	<path fill="#666666" d="M52.2,6L52.2,6l-1.8,1.5l1.3,0.8L52.2,6z M52.3,4.8l1,0.6l-1,5.6l-1-0.6l0.3-1.3l-1.8-1.1l-1,0.8l-0.9-0.6
		L52.3,4.8z"/>
	<polygon fill="#666666" points="56.7,7.8 57.6,8.7 56.4,13 56.4,13 59.1,10 59.9,10.7 56.2,14.6 55.3,13.8 56.5,9.5 56.5,9.5 
		53.8,12.4 53.1,11.7 	"/>
	<polygon fill="#666666" points="61.6,12.6 62.4,13.7 60.3,17.6 60.3,17.6 63.6,15.3 64.1,16.1 59.9,19.2 59.1,18.2 61.1,14.2 
		61.1,14.2 57.9,16.6 57.3,15.8 	"/>
	<polygon fill="#666666" points="65.4,18.3 66.8,21 66.1,21.4 65.2,19.6 64,20.2 64.8,21.8 64.1,22.2 63.2,20.6 61.9,21.2 
		62.8,23.1 62.1,23.4 60.7,20.7 	"/>
	<g>
		<path fill="#666666" d="M65.9,24.9l0.1,0.3c0.2,0.5,0.4,1,1,0.8c0.6-0.2,0.5-0.8,0.3-1.3l-0.1-0.3L65.9,24.9z M67.7,23.2l0.3,1.1
			c0.3,1.1,0.8,2.3-0.6,2.8c-0.6,0.2-1.2,0-1.5-0.6l0,0c0.1,0.3-0.2,0.5-0.4,0.7l-1.7,1.4l-0.4-1.1l1.4-1.1c0.3-0.3,0.4-0.4,0.3-0.9
			l-0.1-0.3L63,25.8l-0.3-1L67.7,23.2z"/>
	</g>
	<path fill="#666666" d="M2,56c-0.4-0.5-0.9-1.1-1.2-1.7c-1.3-2.6-0.9-5,1.8-6.3c2.7-1.4,5-0.5,6.4,2.2c0.3,0.5,0.5,1.3,0.6,1.9
		l-1.4,0.6c0-0.8-0.2-1.4-0.4-1.9c-0.8-1.6-2.6-2-4.2-1.2C2,50.4,1.3,52,2.1,53.7c0.3,0.6,0.8,1.3,1.2,1.6L2,56z"/>
	<polygon fill="#666666" points="10.8,53.5 12,54.8 9.5,57.2 11.9,59.8 14.5,57.3 15.7,58.6 9.3,64.7 8.1,63.4 10.9,60.7 8.4,58.2 
		5.7,60.9 4.4,59.6 	"/>
	<path fill="#666666" d="M19.9,63.3L19.9,63.3L17,65.9l2.3,1.2L19.9,63.3z M19.8,61.2l1.8,0.9l-1.1,9.4l-1.7-0.9l0.3-2.1l-3.2-1.7
		l-1.6,1.4l-1.6-0.9L19.8,61.2z"/>
	<g>
		<path fill="#666666" d="M27.1,68.1l0.6,0.1c0.9,0.2,1.9,0.2,2.1-0.8c0.2-1-0.7-1.3-1.6-1.5l-0.6-0.1L27.1,68.1z M26,64.1l1.9,0.4
			c1.9,0.4,4.1,0.7,3.6,3.1c-0.2,1-1,1.7-2.2,1.7l0,0c0.5,0.1,0.6,0.7,0.7,1.1l0.7,3.7l-1.9-0.4l-0.5-2.9c-0.1-0.7-0.3-1-1-1.1
			l-0.6-0.1l-0.7,3.6l-1.7-0.3L26,64.1z"/>
	</g>
	<polygon fill="#666666" points="35.8,66.6 33.3,66.7 33.2,65.4 40,64.9 40.1,66.3 37.6,66.5 38,73.9 36.3,74 	"/>
	<polygon fill="#666666" points="41.6,64.5 46.6,62.9 47,64.2 43.7,65.2 44.4,67.3 47.4,66.3 47.8,67.6 44.8,68.6 45.6,71 
		48.9,69.9 49.4,71.2 44.4,72.9 	"/>
	<g>
		<path fill="#666666" d="M52.1,64.1l0.5-0.3c0.7-0.5,1.5-1.1,0.9-2.1c-0.6-0.9-1.5-0.4-2.2,0.1l-0.5,0.3L52.1,64.1z M48.5,61.9
			l1.6-1.1c1.6-1.1,3.4-2.4,4.8-0.3c0.6,0.9,0.5,2-0.4,2.7l0,0c0.4-0.2,0.9,0,1.3,0.2l3.1,2.1l-1.6,1.1L54.9,65
			c-0.6-0.4-0.9-0.5-1.5-0.1l-0.5,0.3l2,3.1l-1.5,1L48.5,61.9z"/>
	</g>
	<polygon fill="#666666" points="55.3,57 58.7,53.1 59.8,54 57.5,56.6 59.1,58 61.2,55.6 62.2,56.5 60.2,58.9 62,60.5 64.3,57.9 
		65.4,58.9 61.9,62.8 	"/>
	<g>
		<g>
			<path fill="#666666" d="M34.5,62.9c-15.3,0-27.8-12.5-27.8-27.8S19.2,7.3,34.5,7.3c15.3,0,27.8,12.5,27.8,27.8
				S49.8,62.9,34.5,62.9z"/>
			<g>
				<path fill="#666666" d="M67.6,52.7l0.4-0.9c0.6-1.3,0.2-3.1-1.5-3.9c-1.7-0.8-3.3,0-4,1.4l-0.4,0.9L67.6,52.7z M60.1,51.2l1-2.2
					c1.1-2.5,3-4.2,6.1-2.8c3.2,1.5,3,4,1.9,6.5l-1,2.2L60.1,51.2z"/>
			</g>
		</g>
		<g>
			<path fill="#FFFFFF" d="M38.4,17.7c0.3,0,0.6-0.2,0.6-0.6c0-0.3-0.2-0.6-0.6-0.6c-0.3,0-0.6,0.2-0.6,0.6
				C37.9,17.4,38.1,17.7,38.4,17.7"/>
			<path fill="#FFFFFF" d="M35.2,21.1c-0.5,0-0.9-0.4-0.9-0.9L33,21.5l0.7,0.3l0.2,0.5L35.2,21.1C35.2,21.1,35.2,21.1,35.2,21.1"/>
			<path fill="#FFFFFF" d="M32.4,18.2c0,0,0-0.1,0-0.1c0-0.1-0.1-0.3-0.3-0.3c-0.1,0-0.3,0.1-0.3,0.3c0,0.1,0.1,0.3,0.3,0.3
				C32.2,18.3,32.3,18.3,32.4,18.2l1.9,1.7c0.1-0.2,0.2-0.4,0.4-0.5L32.4,18.2z"/>
			<path fill="#FFFFFF" d="M37.4,23c0,0-0.1,0-0.1,0L36,20.6c-0.1,0.2-0.3,0.3-0.4,0.4l1.7,2c0,0-0.1,0.1-0.1,0.2
				c0,0.1,0.1,0.3,0.3,0.3c0.1,0,0.3-0.1,0.3-0.3C37.6,23.1,37.5,23,37.4,23"/>
			<path fill="#FFFFFF" d="M35,20.5c-0.2,0-0.3-0.2-0.3-0.3c0-0.2,0.1-0.3,0.3-0.3c0.2,0,0.3,0.1,0.3,0.3
				C35.3,20.4,35.2,20.5,35,20.5 M35.2,19.6c-0.3,0-0.6,0.3-0.6,0.6c0,0.3,0.3,0.6,0.6,0.6c0.3,0,0.6-0.3,0.6-0.6
				C35.8,19.9,35.5,19.6,35.2,19.6"/>
			<path fill="#FFFFFF" d="M36.1,19.8c0,0,0.1,0.1,0.2,0c0,0,0-0.1,0-0.2l-0.4-0.5c0,0-0.1-0.1-0.2,0c0,0-0.1,0.1,0,0.2L36.1,19.8z"
				/>
			<path fill="#FFFFFF" d="M36.5,19.5c0,0,0.1,0,0.2,0c0,0,0-0.1,0-0.2l-0.4-0.5c0,0-0.1,0-0.2,0c0,0-0.1,0.1,0,0.2L36.5,19.5z"/>
			<path fill="#FFFFFF" d="M36.8,19.1c0,0,0.1,0.1,0.2,0c0,0,0.1-0.1,0-0.2l-0.4-0.5c0,0-0.1-0.1-0.2,0c0,0-0.1,0.1,0,0.2L36.8,19.1
				z"/>
			<path fill="#FFFFFF" d="M37.2,18.8c0,0,0.1,0.1,0.2,0c0,0,0-0.1,0-0.2l-0.4-0.5c0,0-0.1,0-0.2,0c0,0-0.1,0.1,0,0.2L37.2,18.8z"/>
			<path fill="#FFFFFF" d="M37.6,18.4c0,0,0.1,0.1,0.2,0c0,0,0-0.1,0-0.2l-0.4-0.5c0,0-0.1-0.1-0.2,0c0,0-0.1,0.1,0,0.2L37.6,18.4z"
				/>
			<path fill="#FFFFFF" d="M38,18.1c0,0,0.1,0.1,0.2,0c0,0,0.1-0.1,0-0.2l-0.4-0.5c0,0-0.1-0.1-0.2,0c0,0-0.1,0.1,0,0.2L38,18.1z"/>
			<path fill="#FFFFFF" d="M38.1,28.3c-0.6,0.6-2.3,0.9-3.2,1v0c0,0.2-0.1,0.4-0.2,0.6c0.7,0.3,2.4,1.2,3.1,2l1.2-2.1L38.1,28.3z"/>
			<path fill="#FFFFFF" d="M34.4,23.8L32.6,25l1,3.3c0.1,0,0.2,0,0.3,0l-0.7-3.1l1.1,3.1c0.3,0.1,0.6,0.5,0.6,0.9
				c0.9-0.2,2.1-0.6,2.5-1.2L34.4,23.8z"/>
			<path fill="#FFFFFF" d="M33.9,28.9c0.2,0,0.4,0.2,0.4,0.5c0,0.2-0.2,0.4-0.4,0.4c-0.2,0-0.4-0.2-0.4-0.4
				C33.4,29.1,33.6,28.9,33.9,28.9"/>
			<path fill="#FFFFFF" d="M38.2,37.6c0.2,0,0.3,0.1,0.3,0.3c0,0.2-0.1,0.3-0.3,0.3c-0.2,0-0.3-0.1-0.3-0.3
				C37.9,37.8,38,37.6,38.2,37.6"/>
			<path fill="#FFFFFF" d="M28.4,37.6c1.6-0.3,3.2-0.5,4.9-0.5c1.7,0,3.4,0.2,5,0.5l-0.1,0.6c-1.6-0.3-3.2-0.5-4.8-0.5
				c-1.6,0-3.2,0.2-4.7,0.5"/>
			<path fill="#FFFFFF" d="M28.6,37.6c0.2,0,0.3,0.1,0.3,0.3c0,0.2-0.1,0.3-0.3,0.3c-0.2,0-0.3-0.1-0.3-0.3
				C28.2,37.7,28.4,37.6,28.6,37.6"/>
			<path fill="#FFFFFF" d="M33.3,32.2c-0.1,0-0.2,0-0.3-0.1c0,0,0.1,0,0.1,0c0.4,0,0.6-0.3,0.6-0.6c0,0,0-0.1,0-0.1
				c0.1,0.1,0.1,0.2,0.1,0.3C33.9,32,33.6,32.2,33.3,32.2 M33.3,31c-0.4,0-0.7,0.3-0.7,0.7c0,0.4,0.3,0.7,0.7,0.7
				c0.4,0,0.7-0.3,0.7-0.7C34,31.3,33.7,31,33.3,31"/>
			<path fill="#FFFFFF" d="M39.6,33.1c-0.1,0-0.2,0-0.3-0.1c0,0,0.1,0,0.1,0c0.4,0,0.6-0.3,0.6-0.6c0,0,0-0.1,0-0.1
				c0.1,0.1,0.1,0.2,0.1,0.3C40.2,32.8,39.9,33.1,39.6,33.1 M39.6,31.8c-0.4,0-0.7,0.3-0.7,0.7c0,0.4,0.3,0.7,0.7,0.7
				c0.4,0,0.7-0.3,0.7-0.7C40.3,32.1,40,31.8,39.6,31.8"/>
			<path fill="#FFFFFF" d="M27.1,33.1c-0.1,0-0.2,0-0.3-0.1c0,0,0.1,0,0.1,0c0.4,0,0.6-0.3,0.6-0.6c0,0,0-0.1,0-0.1
				c0,0.1,0.1,0.2,0.1,0.3C27.7,32.9,27.4,33.1,27.1,33.1 M27.1,31.9c-0.4,0-0.7,0.3-0.7,0.7c0,0.4,0.3,0.7,0.7,0.7
				c0.4,0,0.7-0.3,0.7-0.7C27.8,32.2,27.5,31.9,27.1,31.9"/>
			<path fill="#FFFFFF" d="M30.4,55.3c-1.5,0.6-2.5,0.9-3.7,0.9c-3.5,0-5.9-2.2-5.9-5.5c0-3.3,2.4-5.7,5.8-5.7
				c1.3,0,2.8,0.4,4.1,1.2l0.1,2.2c-0.9-1.7-2.4-2.7-4-2.7c-2.5,0-4.3,2.1-4.3,4.9c0,2.9,1.9,5,4.4,5c1.8,0,3.4-1,4-2.6l-0.2,2.3
				L30.4,55.3z"/>
			<path fill="#FFFFFF" d="M34.4,56.1c0.5-0.3,0.7-0.6,0.7-1.4v-8c0-0.9-0.2-1.3-0.7-1.4h2.9c-0.5,0.2-0.7,0.6-0.7,1.4v8
				c0,0.9,0.1,1.2,0.7,1.5H34.4z"/>
			<path fill="#FFFFFF" d="M41,56.1c0.5-0.3,0.7-0.6,0.7-1.4v-8c0-0.9-0.2-1.3-0.7-1.4h2.9c-0.5,0.2-0.7,0.6-0.7,1.4v8
				c0,0.9,0.1,1.2,0.7,1.5H41z"/>
			<path fill="#FFFFFF" d="M32.4,34.9c0,0,0.2-0.5,0.1-1.3c0,0-0.2,0-0.4-0.2c-0.2-0.2-0.2-0.4-0.2-0.5L30.5,35
				C30.5,35,31.7,34.9,32.4,34.9"/>
			<path fill="#FFFFFF" d="M34.4,34.9c0,0,1.7,0.1,2,0.2l0.8-2.7c0,0-0.1-0.6-1.1-1.4c-0.5-0.5-0.9-0.7-1.5-1c0,0-0.1,0.2-0.4,0.3
				c0,0-0.4,0.6-0.4,0.6c0.2,0.1,0.3,0.3,0.4,0.5c0.1,0.2,0.1,0.4,0,0.6c0,0,0.6,0.2,0.6,0.9c-0.1,0.6-0.6,0.7-0.6,0.7
				s0,0.4,0.1,0.6C34.3,34.5,34.4,34.9,34.4,34.9"/>
			<path fill="#FFFFFF" d="M33.2,30.7c0.2,0,0.2,0,0.4,0l0.2-0.4c0,0-0.1,0-0.3-0.1L33.2,30.7z"/>
			<path fill="#FFFFFF" d="M33.6,35.4C33.6,35.5,33.6,35.5,33.6,35.4c0,0.2-0.1,0.3-0.2,0.3c0,0-0.1,0-0.1,0c0,0,0.1,0,0.1,0
				c0.1,0,0.2-0.1,0.2-0.2C33.6,35.5,33.6,35.5,33.6,35.4"/>
			<path fill="#FFFFFF" d="M38.6,36.6c-0.2,0-0.3-0.1-0.3-0.3c0-0.2,0.1-0.3,0.3-0.3c0.2,0,0.3,0.1,0.3,0.3
				C38.9,36.4,38.8,36.6,38.6,36.6 M38.5,33.7c0.3,0,0.5-0.2,0.5-0.5c0,0,0-0.1,0-0.1c0,0.1,0.1,0.1,0.1,0.2c0,0.2-0.2,0.4-0.4,0.4
				C38.5,33.7,38.5,33.7,38.5,33.7C38.4,33.7,38.5,33.7,38.5,33.7 M37.4,35.9c-1-0.2-2-0.3-3-0.4c0,0-0.1-0.1-0.1-0.2
				c1.1,0,2.2,0.2,3.3,0.4C37.5,35.8,37.5,35.9,37.4,35.9 M33.8,33.1c0.3,0,0.5-0.2,0.5-0.5c0,0,0-0.1,0-0.1c0,0.1,0.1,0.1,0.1,0.2
				c0,0.2-0.2,0.4-0.4,0.4C33.9,33.2,33.8,33.2,33.8,33.1C33.7,33.1,33.8,33.1,33.8,33.1 M33.4,35.8c-0.2,0-0.3-0.1-0.3-0.3
				c0-0.2,0.1-0.3,0.3-0.3c0.2,0,0.3,0.1,0.3,0.3C33.7,35.7,33.6,35.8,33.4,35.8 M32.7,33.2c-0.1,0-0.2,0-0.2-0.1c0,0,0.1,0,0.1,0
				c0.3,0,0.5-0.2,0.5-0.5c0,0,0-0.1,0-0.1c0,0.1,0.1,0.1,0.1,0.2C33.1,33,32.9,33.2,32.7,33.2 M32.4,35.6c-1,0-2,0.2-3,0.4
				c0,0-0.1-0.1-0.2-0.2c1.1-0.2,2.2-0.3,3.3-0.4C32.4,35.5,32.4,35.5,32.4,35.6 M28.2,36.6c-0.2,0-0.3-0.1-0.3-0.3
				c0-0.2,0.1-0.3,0.3-0.3c0.2,0,0.3,0.1,0.3,0.3C28.5,36.4,28.4,36.6,28.2,36.6 M27.9,33.7C27.9,33.7,28,33.7,27.9,33.7
				c0.4,0,0.6-0.2,0.6-0.5c0,0,0-0.1,0-0.1c0,0.1,0.1,0.1,0.1,0.2c0,0.2-0.2,0.4-0.4,0.4C28,33.7,28,33.7,27.9,33.7 M38.8,35.9
				c0.3-1,0.5-2.1,0.3-2.7l0,0c0-0.3-0.3-0.4-0.5-0.4c-0.3,0-0.5,0.2-0.5,0.5c0,0.2,0.1,0.4,0.3,0.5l0,0c-0.1,0.8-0.4,1.4-0.6,1.7
				c-1.1-0.2-2.3-0.4-3.5-0.4c-0.2-0.4-0.4-1-0.3-1.9c0,0,0.1,0,0.1,0c0.3,0,0.6-0.3,0.6-0.6c0-0.3-0.2-0.6-0.6-0.6
				c-0.3,0-0.6,0.3-0.6,0.6c0,0,0,0,0,0c-0.1,0.1-0.1,0-0.2,0c0,0,0,0,0,0c0-0.3-0.2-0.6-0.6-0.6c-0.3,0-0.6,0.3-0.6,0.6
				c0,0.3,0.2,0.6,0.6,0.6c0,0,0.1,0,0.1,0c0,0.9-0.1,1.5-0.2,1.9c-1.2,0-2.4,0.2-3.5,0.4c-0.3-0.4-0.6-0.9-0.6-1.8l0,0
				c0.2-0.1,0.3-0.3,0.3-0.5c0-0.3-0.2-0.5-0.5-0.5c-0.3,0-0.5,0.2-0.5,0.4l0,0c-0.2,0.6,0.1,1.8,0.3,2.7c-0.1,0.1-0.2,0.2-0.2,0.3
				c0,0.2,0.2,0.4,0.4,0.4c0.2,0.5,0.3,0.8,0.3,0.8l0.9-1.3l-0.4,1.1c1.3-0.3,2.5-0.4,4.1-0.4l-0.5-1.1l0.9,1.1l1-1.1l-0.6,1.1
				c1.5,0,2.7,0.1,4.1,0.4l-0.5-1.2l0.9,1.4c0,0,0.1-0.3,0.3-0.8c0,0,0,0,0,0c0.2,0,0.4-0.2,0.4-0.4C39,36.1,38.9,36,38.8,35.9"/>
			<path fill="#FFFFFF" d="M28.4,36.2C28.4,36.2,28.4,36.2,28.4,36.2c0,0.2-0.1,0.3-0.2,0.3c0,0-0.1,0-0.1,0c0,0,0.1,0,0.1,0
				c0.1,0,0.2-0.1,0.2-0.2C28.4,36.2,28.4,36.2,28.4,36.2"/>
			<path fill="#FFFFFF" d="M38.8,36.2C38.8,36.2,38.8,36.2,38.8,36.2c0,0.2-0.1,0.3-0.2,0.3c0,0-0.1,0-0.1,0c0,0,0.1,0,0.1,0
				c0.1,0,0.2-0.1,0.2-0.2C38.9,36.2,38.8,36.2,38.8,36.2"/>
			<polygon fill="#FFFFFF" points="17.7,41.3 33.1,41.5 49.1,41.4 33.1,41.1 			"/>
			<g>
				<path fill="#FFFFFF" d="M34.2,11.9c-4.9,0-9,3.5-9.9,8.2c1.1-4.2,4.9-7.4,9.5-7.4c5.4,0,9.8,4.4,9.8,9.9c0,3.4-1.7,6.4-4.3,8.2
					c3-1.8,5-5,5-8.7C44.3,16.4,39.8,11.9,34.2,11.9"/>
			</g>
			<polygon fill="#FFFFFF" points="32.4,22.9 32.6,23.4 31.6,24.3 25.8,29.6 23.1,31.6 30.7,23.8 31.7,23.9 32.5,22.5 32.3,22.1 
				32.4,22.1 32.7,22.4 			"/>
			<polygon fill="#FFFFFF" points="31.4,21.8 31.3,22 31.1,22 30.9,22.2 31,22.4 30.8,22.5 30.7,22.8 30.8,23 30.7,23 30.6,23.3 
				30.8,23.4 31.4,23.5 32.1,22.4 31.7,21.7 31.6,21.7 			"/>
			<polygon fill="#FFFFFF" points="33,23.6 32.9,23 33.1,22.5 33.2,22.3 32.1,21.5 32.6,21.6 33.4,22 34,23.7 32.7,24.7 32.1,24.5 
							"/>
		</g>
	</g>
</g>
</svg>
