<?xml version="1.0" encoding="utf-8"?>
<!-- Generator: Adobe Illustrator 18.1.1, SVG Export Plug-In . SVG Version: 6.00 Build 0)  -->
<!DOCTYPE svg PUBLIC "-//W3C//DTD SVG 1.1//EN" "http://www.w3.org/Graphics/SVG/1.1/DTD/svg11.dtd">
<svg version="1.1" id="Layer_1" xmlns="http://www.w3.org/2000/svg" xmlns:xlink="http://www.w3.org/1999/xlink" x="0px" y="0px"
	 width="30px" height="150px" viewBox="0 0 30 150" enable-background="new 0 0 30 150" xml:space="preserve">
<g>
	<rect fill="#FFFFFF" width="30" height="30"/>
	<rect x="0.5" y="0.5" fill="none" stroke="#BAB9BB" stroke-miterlimit="10" width="29" height="29"/>
</g>
<g>
	<rect y="80" fill="#FFFFFF" width="30" height="30"/>
	<rect x="0.5" y="80.5" fill="none" stroke="#BAB9BB" stroke-miterlimit="10" width="29" height="29"/>
</g>
<g>
	<rect y="40" fill="#FFFFFF" width="30" height="30"/>
	<rect x="0.5" y="40.5" fill="none" stroke="#33ABD8" stroke-miterlimit="10" width="29" height="29"/>
</g>
<g>
	<rect x="2" y="41" fill="#FFFFFF" width="27" height="27"/>
	<rect x="1.5" y="41.5" fill="none" stroke="#DFDFDF" stroke-miterlimit="10" width="27" height="27"/>
</g>
<g>
	<rect y="120" fill="#FFFFFF" width="30" height="30"/>
	<rect x="0.5" y="120.5" fill="none" stroke="#33ABD8" stroke-miterlimit="10" width="29" height="29"/>
</g>
<g>
	<rect x="2" y="121" fill="#FFFFFF" width="27" height="27"/>
	<rect x="1.5" y="121.5" fill="none" stroke="#DFDFDF" stroke-miterlimit="10" width="27" height="27"/>
</g>
<g>
	<g>
		<path fill="#A3A467" d="M21.7,92.9l-6.5,6.5l-1.2,1.2c-0.2,0.2-0.4,0.2-0.6,0.2s-0.4-0.1-0.6-0.2l-1.2-1.2l-3.2-3.2
			c-0.2-0.2-0.2-0.4-0.2-0.6c0-0.2,0.1-0.4,0.2-0.6l1.2-1.2c0.2-0.2,0.4-0.2,0.6-0.2s0.4,0.1,0.6,0.2l2.6,2.6l5.9-5.9
			c0.2-0.2,0.4-0.2,0.6-0.2c0.2,0,0.4,0.1,0.6,0.2l1.2,1.2c0.2,0.2,0.2,0.4,0.2,0.6C21.9,92.6,21.8,92.8,21.7,92.9z"/>
	</g>
</g>
<g>
	<g>
		<path fill="#A3A467" d="M21.7,132.9l-6.5,6.5l-1.2,1.2c-0.2,0.2-0.4,0.2-0.6,0.2s-0.4-0.1-0.6-0.2l-1.2-1.2l-3.2-3.2
			c-0.2-0.2-0.2-0.4-0.2-0.6c0-0.2,0.1-0.4,0.2-0.6l1.2-1.2c0.2-0.2,0.4-0.2,0.6-0.2s0.4,0.1,0.6,0.2l2.6,2.6l5.9-5.9
			c0.2-0.2,0.4-0.2,0.6-0.2c0.2,0,0.4,0.1,0.6,0.2l1.2,1.2c0.2,0.2,0.2,0.4,0.2,0.6C21.9,132.6,21.8,132.8,21.7,132.9z"/>
	</g>
</g>
</svg>
