<?xml version="1.0" encoding="utf-8"?>
<!-- Generator: Adobe Illustrator 18.1.1, SVG Export Plug-In . SVG Version: 6.00 Build 0)  -->
<!DOCTYPE svg PUBLIC "-//W3C//DTD SVG 1.1//EN" "http://www.w3.org/Graphics/SVG/1.1/DTD/svg11.dtd">
<svg version="1.1" id="Layer_1" xmlns="http://www.w3.org/2000/svg" xmlns:xlink="http://www.w3.org/1999/xlink" x="0px" y="0px"
	 width="300px" height="38px" viewBox="0 0 300 38" enable-background="new 0 0 300 38" xml:space="preserve">
<g>
	<path fill="#333333" d="M0.2,12.3c-0.1-1.5-0.1-3-0.2-4.6c1.1,0,2.2,0.1,3.2,0.1c1.1,0,2.1,0.1,3.2,0.1c1.1,0,2.2,0,3.2-0.1
		c1.1,0,2.1-0.1,3.2-0.1c-0.1,0.4-0.1,0.7-0.1,1.1c0,0.4,0,0.7,0.1,1.1c-0.8,0-1.5-0.1-2.1-0.1c-0.6,0-1.3-0.1-2-0.1
		C8,9.5,7.3,9.5,6.4,9.5c-0.8,0-1.9-0.1-3-0.1c0,0.8-0.1,1.5-0.1,2.2c0,0.7-0.1,1.5-0.1,2.4c0,0.9,0,1.8,0,2.7c0,0.9,0,1.5,0,2
		c1.1,0,2,0,2.9,0c0.8,0,1.6-0.1,2.3-0.1c0.7,0,1.3-0.1,1.9-0.1c0.6,0,1.1-0.1,1.7-0.1c-0.1,0.4-0.1,0.7-0.1,1.1
		c0,0.4,0,0.7,0.1,1.1c-0.6-0.1-1.4-0.1-2.2-0.2c-0.8,0-1.7-0.1-2.5-0.1c-0.8,0-1.6,0-2.3,0c-0.7,0-1.3,0-1.8,0c0,0.2,0,0.4,0,0.7
		c0,0.2,0,0.6,0,0.9v1.4v2.1c0,1.4,0,2.5,0,3.4c0,0.9,0,1.5,0.1,2h2.5c0.9,0,1.8,0,2.7-0.1s1.7-0.1,2.5-0.1s1.5-0.1,2-0.3
		c0,0.2-0.1,0.4-0.1,0.6c0,0.2,0,0.4,0,0.6c0,0.4,0,0.7,0.1,0.9c-1.1,0-2.2-0.1-3.2-0.1H6.6H3.3c-1.1,0-2.2,0-3.3,0.1
		c0.1-1.5,0.1-3,0.2-4.5c0.1-1.5,0.1-3,0.1-4.6v-6.1C0.3,15.4,0.3,13.8,0.2,12.3"/>
	<path fill="#333333" d="M19.2,28.9c0.3,0.4,0.7,0.8,1.2,1.2c0.5,0.4,1,0.6,1.6,0.9c0.6,0.2,1.3,0.3,2.1,0.3c0.8,0,1.5-0.1,2.1-0.4
		c0.6-0.3,1.2-0.6,1.6-1.1c0.4-0.5,0.8-1,1-1.6c0.2-0.6,0.4-1.3,0.4-2c0-1.1-0.3-2-0.8-2.6c-0.6-0.6-1.3-1.2-2.1-1.6
		c-0.8-0.4-1.7-0.8-2.7-1.2c-1-0.4-1.9-0.8-2.7-1.3c-0.8-0.5-1.5-1.2-2.1-2.1c-0.6-0.8-0.8-2-0.8-3.4c0-1,0.2-1.9,0.5-2.7
		c0.4-0.8,0.9-1.5,1.6-2.1c0.7-0.6,1.5-1.1,2.5-1.4c1-0.3,2-0.5,3.2-0.5c1.2,0,2.2,0.1,3,0.4c0.8,0.3,1.6,0.7,2.3,1.3
		c-0.2,0.4-0.4,0.8-0.5,1.3c-0.1,0.5-0.3,1-0.4,1.7h-0.4c-0.1-0.3-0.3-0.7-0.5-1.1c-0.2-0.4-0.5-0.8-0.8-1.1
		c-0.3-0.3-0.8-0.6-1.2-0.8c-0.5-0.2-1.1-0.3-1.7-0.3c-0.7,0-1.3,0.1-1.9,0.3c-0.6,0.2-1.1,0.5-1.5,0.9c-0.4,0.4-0.7,0.9-1,1.4
		c-0.2,0.5-0.3,1.1-0.3,1.8c0,1.1,0.3,2,0.8,2.6c0.6,0.6,1.3,1.2,2.1,1.6c0.8,0.4,1.7,0.8,2.7,1.2c1,0.3,1.9,0.8,2.7,1.3
		c0.8,0.5,1.5,1.1,2.1,1.9c0.6,0.8,0.8,1.8,0.8,3.1c0,1.1-0.2,2.1-0.6,3.1c-0.4,1-1,1.8-1.7,2.6c-0.8,0.7-1.7,1.3-2.8,1.7
		c-1.1,0.4-2.3,0.6-3.7,0.6c-1.5,0-2.7-0.2-3.6-0.6c-0.9-0.4-1.7-0.8-2.3-1.3c0.2-0.5,0.4-1,0.5-1.5c0.1-0.4,0.2-1,0.2-1.7h0.4
		C18.6,28,18.9,28.5,19.2,28.9"/>
	<path fill="#333333" d="M43.1,9.6c-0.6,0-1.3,0-2,0c-0.7,0-1.4,0-2.1,0.1c-0.7,0-1.3,0.1-2,0.1c-0.6,0-1.2,0.1-1.7,0.2
		c0.1-0.4,0.2-0.8,0.2-1.1c0-0.3-0.1-0.6-0.2-1.1c1.6,0,3.1,0.1,4.7,0.1c1.5,0,3.1,0.1,4.7,0.1c1.6,0,3.1,0,4.7-0.1
		c1.5,0,3.1-0.1,4.7-0.1c-0.1,0.5-0.2,0.9-0.2,1.1c0,0.3,0.1,0.7,0.2,1.1c-0.5-0.1-1.1-0.1-1.7-0.2c-0.6,0-1.3-0.1-2-0.1
		c-0.7,0-1.4-0.1-2.1-0.1c-0.7,0-1.3,0-2,0c-0.1,2.4-0.1,4.9-0.1,7.4v6.1c0,1.6,0,3.1,0.1,4.6c0.1,1.5,0.1,3,0.2,4.5
		c-0.6,0-1.1-0.1-1.8-0.1c-0.6,0-1.2,0-1.8,0.1c0.1-1.5,0.1-3,0.2-4.5c0.1-1.5,0.1-3.1,0.1-4.6V17C43.2,14.5,43.2,12,43.1,9.6"/>
	<path fill="#333333" d="M60.5,21.1c0.6,0,1.3,0,1.9,0c0.7,0,1.3,0,1.9,0c0.7,0,1.3,0,2,0c0.7,0,1.3,0,2-0.1l-4-9.1L60.5,21.1z
		 M76.4,32.2c-0.3,0-0.7-0.1-1-0.1h-1h-1c-0.3,0-0.6,0-1,0.1c-0.2-0.5-0.4-1.2-0.7-2c-0.3-0.8-0.6-1.6-1-2.4
		c-0.3-0.8-0.7-1.7-1.1-2.6c-0.4-0.9-0.7-1.7-1-2.5c-0.8,0-1.6,0-2.3-0.1c-0.8,0-1.6,0-2.4,0c-0.7,0-1.5,0-2.2,0
		c-0.7,0-1.5,0-2.2,0.1c-0.8,1.9-1.5,3.6-2.1,5.3c-0.6,1.7-1.1,3.1-1.4,4.2c-0.4,0-0.9-0.1-1.3-0.1c-0.5,0-0.9,0-1.3,0.1
		c1.9-4.2,3.9-8.3,5.7-12.4c1.9-4.1,3.7-8.3,5.6-12.6h0.7c0.6,1.4,1.2,2.9,1.9,4.5c0.7,1.6,1.4,3.2,2.1,4.9c0.7,1.6,1.4,3.3,2.1,4.9
		c0.7,1.6,1.4,3.1,2,4.5c0.6,1.4,1.2,2.6,1.7,3.7C75.7,30.8,76.1,31.7,76.4,32.2"/>
	<path fill="#333333" d="M83.7,9.6c-0.6,0-1.3,0-2,0c-0.7,0-1.4,0-2.1,0.1c-0.7,0-1.3,0.1-2,0.1c-0.6,0-1.2,0.1-1.7,0.2
		c0.1-0.4,0.2-0.8,0.2-1.1c0-0.3-0.1-0.6-0.2-1.1c1.6,0,3.1,0.1,4.7,0.1c1.5,0,3.1,0.1,4.7,0.1c1.6,0,3.1,0,4.7-0.1
		c1.5,0,3.1-0.1,4.7-0.1c-0.1,0.5-0.2,0.9-0.2,1.1c0,0.3,0.1,0.7,0.2,1.1c-0.5-0.1-1.1-0.1-1.7-0.2c-0.6,0-1.3-0.1-2-0.1
		c-0.7,0-1.4-0.1-2.1-0.1c-0.7,0-1.3,0-2,0c-0.1,2.4-0.1,4.9-0.1,7.4v6.1c0,1.6,0,3.1,0.1,4.6c0.1,1.5,0.1,3,0.2,4.5
		c-0.6,0-1.1-0.1-1.8-0.1c-0.6,0-1.2,0-1.8,0.1c0.1-1.5,0.1-3,0.2-4.5c0.1-1.5,0.1-3.1,0.1-4.6V17C83.8,14.5,83.8,12,83.7,9.6"/>
	<path fill="#333333" d="M99.7,12.3c-0.1-1.5-0.1-3-0.2-4.6c1.1,0,2.2,0.1,3.2,0.1c1.1,0,2.1,0.1,3.2,0.1c1.1,0,2.2,0,3.2-0.1
		c1.1,0,2.1-0.1,3.2-0.1c-0.1,0.4-0.1,0.7-0.1,1.1c0,0.4,0,0.7,0.1,1.1c-0.8,0-1.5-0.1-2.1-0.1c-0.6,0-1.3-0.1-2-0.1
		c-0.7,0-1.5-0.1-2.3-0.1c-0.8,0-1.9-0.1-3-0.1c0,0.8-0.1,1.5-0.1,2.2c0,0.7-0.1,1.5-0.1,2.4c0,0.9,0,1.8,0,2.7c0,0.9,0,1.5,0,2
		c1.1,0,2,0,2.9,0c0.8,0,1.6-0.1,2.3-0.1c0.7,0,1.3-0.1,1.9-0.1c0.6,0,1.1-0.1,1.7-0.1c-0.1,0.4-0.1,0.7-0.1,1.1
		c0,0.4,0,0.7,0.1,1.1c-0.6-0.1-1.4-0.1-2.2-0.2c-0.8,0-1.7-0.1-2.5-0.1c-0.8,0-1.6,0-2.3,0c-0.7,0-1.3,0-1.8,0c0,0.2,0,0.4,0,0.7
		c0,0.2,0,0.6,0,0.9v1.4v2.1c0,1.4,0,2.5,0,3.4c0,0.9,0,1.5,0.1,2h2.5c0.9,0,1.8,0,2.7-0.1c0.9,0,1.7-0.1,2.5-0.1
		c0.8-0.1,1.5-0.1,2-0.3c0,0.2-0.1,0.4-0.1,0.6c0,0.2,0,0.4,0,0.6c0,0.4,0,0.7,0.1,0.9c-1.1,0-2.2-0.1-3.2-0.1H106h-3.3
		c-1.1,0-2.2,0-3.3,0.1c0.1-1.5,0.1-3,0.2-4.5c0.1-1.5,0.1-3,0.1-4.6v-6.1C99.8,15.4,99.7,13.8,99.7,12.3"/>
	<path fill="#333333" d="M181.1,31.4c-0.5,0.2-1,0.4-1.7,0.6c-0.7,0.2-1.4,0.3-2.2,0.5c-0.8,0.1-1.7,0.2-2.6,0.2
		c-1.9,0-3.7-0.3-5.3-0.8c-1.6-0.5-3-1.4-4.2-2.4c-1.2-1.1-2.1-2.4-2.7-4c-0.7-1.6-1-3.4-1-5.4c0-2,0.3-3.8,1-5.4
		c0.7-1.6,1.6-2.9,2.8-4c1.2-1.1,2.6-1.9,4.3-2.5c1.7-0.6,3.5-0.9,5.5-0.9c1.6,0,3,0.2,4.3,0.5c1.3,0.3,2.5,0.7,3.5,1.2
		c-0.2,0.3-0.3,0.8-0.5,1.4c-0.1,0.6-0.2,1-0.3,1.4l-0.2,0.1c-0.2-0.3-0.6-0.6-1-1c-0.4-0.4-0.9-0.7-1.5-1c-0.6-0.3-1.2-0.6-1.9-0.8
		c-0.7-0.2-1.5-0.3-2.4-0.3c-1.4,0-2.7,0.2-4,0.7c-1.2,0.5-2.3,1.1-3.2,2.1c-0.9,0.9-1.6,2.1-2.1,3.6c-0.5,1.4-0.8,3.1-0.8,5.1
		s0.3,3.7,0.8,5.1c0.5,1.4,1.2,2.6,2.1,3.6c0.9,0.9,2,1.6,3.2,2.1c1.2,0.5,2.5,0.7,4,0.7c0.9,0,1.7-0.1,2.4-0.3
		c0.7-0.2,1.4-0.5,2-0.8c0.6-0.3,1.2-0.6,1.7-1c0.5-0.3,0.9-0.6,1.2-0.9l0.1,0.1l-0.3,2.1C181.9,31,181.6,31.2,181.1,31.4"/>
	<path fill="#333333" d="M190.7,21.1c0.6,0,1.3,0,1.9,0c0.7,0,1.3,0,1.9,0c0.7,0,1.3,0,2,0c0.7,0,1.3,0,2-0.1l-4-9.1L190.7,21.1z
		 M206.7,32.2c-0.3,0-0.7-0.1-1-0.1h-1h-1c-0.3,0-0.6,0-1,0.1c-0.2-0.5-0.4-1.2-0.7-2c-0.3-0.8-0.6-1.6-1-2.4
		c-0.3-0.8-0.7-1.7-1.1-2.6c-0.4-0.9-0.7-1.7-1-2.5c-0.8,0-1.6,0-2.3-0.1c-0.8,0-1.6,0-2.4,0c-0.7,0-1.5,0-2.2,0
		c-0.7,0-1.5,0-2.2,0.1c-0.8,1.9-1.5,3.6-2.1,5.3c-0.6,1.7-1.1,3.1-1.4,4.2c-0.4,0-0.9-0.1-1.3-0.1c-0.5,0-0.9,0-1.3,0.1
		c1.9-4.2,3.8-8.3,5.7-12.4c1.9-4.1,3.7-8.3,5.6-12.6h0.7c0.6,1.4,1.2,2.9,1.9,4.5c0.7,1.6,1.4,3.2,2.1,4.9c0.7,1.6,1.4,3.3,2.1,4.9
		c0.7,1.6,1.4,3.1,2,4.5c0.6,1.4,1.2,2.6,1.7,3.7C206,30.8,206.4,31.7,206.7,32.2"/>
	<path fill="#333333" d="M217.3,19.9c0.7,0,1.5-0.1,2.3-0.3c0.8-0.2,1.5-0.5,2.2-0.9c0.7-0.4,1.2-1,1.6-1.8c0.4-0.8,0.6-1.8,0.6-3
		c0-1-0.1-1.9-0.4-2.5c-0.3-0.6-0.7-1.1-1.2-1.5c-0.5-0.4-1.1-0.6-1.9-0.7C219.8,9.1,218.9,9,218,9h-3.2v10.6
		C215.6,19.8,216.4,19.9,217.3,19.9 M211.7,12.3c-0.1-1.5-0.1-3-0.2-4.6c0.6,0,1.2,0.1,1.8,0.1c0.6,0,1.2,0.1,1.8,0.1
		c0.3,0,0.6,0,1,0c0.4,0,0.8,0,1.2-0.1c0.4,0,0.8,0,1.2-0.1c0.4,0,0.7,0,1,0c0.4,0,0.8,0,1.3,0c0.5,0,1.1,0.1,1.7,0.2
		c0.6,0.1,1.2,0.3,1.8,0.5c0.6,0.2,1.1,0.6,1.6,1c0.5,0.5,0.8,1,1.1,1.7c0.3,0.7,0.4,1.5,0.4,2.5c0,1.6-0.3,2.8-1,3.8
		c-0.7,1-1.5,1.7-2.5,2.3c-1,0.5-2.1,0.9-3.2,1.1c-1.1,0.2-2.1,0.3-3,0.3c-0.6,0-1.1,0-1.5,0c-0.5,0-0.9,0-1.4-0.1v2
		c0,1.6,0,3.1,0.1,4.6c0.1,1.5,0.1,3,0.2,4.5c-0.6,0-1.1-0.1-1.8-0.1c-0.6,0-1.2,0-1.8,0.1c0.1-1.5,0.1-3,0.2-4.5
		c0.1-1.5,0.1-3.1,0.1-4.6V17C211.8,15.4,211.8,13.9,211.7,12.3"/>
	<path fill="#333333" d="M232.7,12.3c-0.1-1.5-0.1-3-0.2-4.6c0.3,0,0.6,0.1,0.9,0.1c0.3,0,0.6,0.1,0.9,0.1c0.3,0,0.6,0,0.9-0.1
		c0.3,0,0.6-0.1,0.9-0.1c-0.1,1.6-0.1,3.1-0.2,4.6c-0.1,1.5-0.1,3-0.1,4.6v6.1c0,1.6,0,3.1,0.1,4.6c0.1,1.5,0.1,3,0.2,4.5
		c-0.6,0-1.1-0.1-1.8-0.1c-0.6,0-1.2,0-1.8,0.1c0.1-1.5,0.1-3,0.2-4.5c0.1-1.5,0.1-3.1,0.1-4.6V17C232.8,15.4,232.7,13.9,232.7,12.3
		"/>
	<path fill="#333333" d="M248.6,9.6c-0.6,0-1.3,0-2,0c-0.7,0-1.4,0-2.1,0.1c-0.7,0-1.3,0.1-2,0.1c-0.6,0-1.2,0.1-1.7,0.2
		c0.1-0.4,0.2-0.8,0.2-1.1c0-0.3-0.1-0.6-0.2-1.1c1.6,0,3.1,0.1,4.7,0.1c1.5,0,3.1,0.1,4.7,0.1c1.6,0,3.1,0,4.7-0.1
		c1.5,0,3.1-0.1,4.7-0.1c-0.1,0.5-0.2,0.9-0.2,1.1c0,0.3,0.1,0.7,0.2,1.1c-0.5-0.1-1.1-0.1-1.7-0.2c-0.6,0-1.3-0.1-2-0.1
		c-0.7,0-1.4-0.1-2.1-0.1c-0.7,0-1.3,0-2,0c-0.1,2.4-0.1,4.9-0.1,7.4v6.1c0,1.6,0,3.1,0.1,4.6c0.1,1.5,0.1,3,0.2,4.5
		c-0.6,0-1.1-0.1-1.8-0.1c-0.6,0-1.2,0-1.8,0.1c0.1-1.5,0.1-3,0.2-4.5c0.1-1.5,0.1-3.1,0.1-4.6V17C248.7,14.5,248.6,12,248.6,9.6"/>
	<path fill="#333333" d="M265.9,21.1c0.6,0,1.3,0,1.9,0c0.7,0,1.3,0,1.9,0c0.7,0,1.3,0,2,0c0.7,0,1.3,0,2-0.1l-4-9.1L265.9,21.1z
		 M281.9,32.2c-0.3,0-0.7-0.1-1-0.1h-1h-1c-0.3,0-0.6,0-1,0.1c-0.2-0.5-0.4-1.2-0.7-2c-0.3-0.8-0.6-1.6-1-2.4
		c-0.3-0.8-0.7-1.7-1.1-2.6c-0.4-0.9-0.7-1.7-1-2.5c-0.8,0-1.6,0-2.3-0.1c-0.8,0-1.6,0-2.4,0c-0.7,0-1.5,0-2.2,0
		c-0.7,0-1.5,0-2.2,0.1c-0.8,1.9-1.5,3.6-2.1,5.3c-0.6,1.7-1.1,3.1-1.4,4.2c-0.4,0-0.9-0.1-1.3-0.1c-0.5,0-0.9,0-1.3,0.1
		c1.9-4.2,3.8-8.3,5.7-12.4c1.9-4.1,3.7-8.3,5.6-12.6h0.7c0.6,1.4,1.2,2.9,1.9,4.5c0.7,1.6,1.4,3.2,2.1,4.9c0.7,1.6,1.4,3.3,2.1,4.9
		c0.7,1.6,1.4,3.1,2,4.5c0.6,1.4,1.2,2.6,1.7,3.7C281.2,30.8,281.6,31.7,281.9,32.2"/>
	<path fill="#333333" d="M286.9,12.3c-0.1-1.5-0.1-3-0.2-4.6c0.3,0,0.6,0.1,0.9,0.1c0.3,0,0.6,0.1,0.9,0.1c0.3,0,0.6,0,0.9-0.1
		c0.3,0,0.6-0.1,0.9-0.1c-0.1,1.6-0.1,3.1-0.2,4.6c-0.1,1.5-0.1,3-0.1,4.6c0,3,0,5.6,0,7.8c0,2.2,0,4.2,0.1,5.9c1.7,0,3.3,0,4.9-0.1
		c1.6,0,3.3-0.2,5.1-0.4c-0.1,0.4-0.2,0.8-0.2,1.1c0,0.3,0.1,0.6,0.2,1c-1.1,0-2.2-0.1-3.3-0.1h-3.3H290c-1.1,0-2.2,0-3.3,0.1
		c0.1-1.5,0.1-3,0.2-4.5c0.1-1.5,0.1-3.1,0.1-4.6V17C287,15.4,286.9,13.9,286.9,12.3"/>
	<path fill="#B4C9CC" d="M151.1,0.2c0,0.1,0,0.6-0.1,1.3c0,0.8-0.1,1.8-0.1,3c-0.1,1.2-0.1,2.6-0.2,4.1c-0.1,1.5-0.1,3-0.2,4.5
		l-11.4,2l0.8-11.7L151.1,0.2z"/>
	<path fill="#87845E" d="M135.3,18.7l-1.4,18.7c-0.8-0.7-1.8-1.5-2.8-2.3c-1-0.8-1.9-1.7-2.8-2.6c-0.9-0.8-1.6-1.6-2.1-2.3
		c-0.5-0.7-0.8-1.2-0.8-1.5l0.8-8.6L135.3,18.7z"/>
	<path fill="#AF0B40" d="M150.3,16.5l-0.5,11.2c0,0.6-0.6,1.4-1.4,2.3c-0.9,0.9-2,1.9-3.3,2.8c-1.3,1-2.7,1.9-4,2.8
		c-1.3,0.8-2.5,1.6-3.5,2.1l1.3-19.6L150.3,16.5z"/>
	<path fill="#5C2F16" d="M136.4,4.5l-0.8,11.3l-9.1,1.6c0.1-1.2,0.2-2.4,0.3-3.5c0.1-1.2,0.2-2.3,0.3-3.2c0.1-1,0.2-1.8,0.2-2.4
		c0.1-0.6,0.1-1,0.1-1.1L136.4,4.5z"/>
</g>
</svg>
