<?xml version="1.0" encoding="utf-8"?>
<!-- Generator: Adobe Illustrator 18.1.1, SVG Export Plug-In . SVG Version: 6.00 Build 0)  -->
<!DOCTYPE svg PUBLIC "-//W3C//DTD SVG 1.1//EN" "http://www.w3.org/Graphics/SVG/1.1/DTD/svg11.dtd">
<svg version="1.1" id="Layer_1" xmlns="http://www.w3.org/2000/svg" xmlns:xlink="http://www.w3.org/1999/xlink" x="0px" y="0px"
	 width="74px" height="74px" viewBox="0 0 74 74" enable-background="new 0 0 74 74" xml:space="preserve">
<g>
	<g>
		<g>
			<g>
				<g>
					<path fill="#666666" d="M37,72.5c-4.9,0-9.6-1-14-2.8c-4.3-1.8-8.1-4.4-11.4-7.7c-3.3-3.3-5.9-7.2-7.7-11.4
						C2,46.1,1,41.4,1,36.5s1-9.6,2.8-14c1.8-4.3,4.4-8.1,7.7-11.4S18.7,5.1,23,3.3c4.4-1.9,9.2-2.8,14-2.8s9.6,1,14,2.8
						c4.3,1.8,8.1,4.4,11.4,7.7s5.9,7.2,7.7,11.4c1.9,4.4,2.8,9.2,2.8,14s-1,9.6-2.8,14c-1.8,4.3-4.4,8.1-7.7,11.4
						c-3.3,3.3-7.2,5.9-11.4,7.7C46.6,71.5,41.9,72.5,37,72.5z M37,0.6c-4.8,0-9.6,0.9-14,2.8c-4.3,1.8-8.1,4.4-11.4,7.7
						s-5.9,7.1-7.7,11.4c-1.9,4.4-2.8,9.1-2.8,14c0,4.8,0.9,9.6,2.8,14c1.8,4.3,4.4,8.1,7.7,11.4c3.3,3.3,7.1,5.9,11.4,7.7
						c4.4,1.9,9.1,2.8,14,2.8s9.6-0.9,14-2.8c4.3-1.8,8.1-4.4,11.4-7.7c3.3-3.3,5.9-7.1,7.7-11.4c1.9-4.4,2.8-9.1,2.8-14
						c0-4.8-0.9-9.6-2.8-14c-1.8-4.3-4.4-8.1-7.7-11.4C59.1,7.8,55.3,5.2,51,3.4C46.6,1.5,41.8,0.6,37,0.6z"/>
				</g>
				<g>
					<path fill="#666666" d="M37,36.5"/>
				</g>
			</g>
		</g>
		<g>
			<g>
				<path fill="#666666" d="M37,73c-9.7,0-18.9-3.8-25.8-10.7S0.5,46.2,0.5,36.5c0-9.7,3.8-18.9,10.7-25.8C18.1,3.8,27.3,0,37,0
					s18.9,3.8,25.8,10.7c6.9,6.9,10.7,16.1,10.7,25.8c0,9.7-3.8,18.9-10.7,25.8C55.9,69.2,46.7,73,37,73z M37,1.1
					C17.5,1.1,1.6,17,1.6,36.5C1.6,56,17.5,71.9,37,71.9S72.4,56,72.4,36.5C72.4,17,56.5,1.1,37,1.1z"/>
			</g>
			<g>
				<path fill="#666666" d="M37,36.5"/>
			</g>
		</g>
	</g>
	<g>
		<path fill-rule="evenodd" clip-rule="evenodd" fill="#666666" d="M18.2,16.9c-0.5-0.5-0.9-0.8-1.2-1c-0.3-0.2-0.6-0.1-0.8,0.2
			l-0.4,0.5l2.9,2.8l0.4-0.4c0.2-0.3,0.3-0.5,0.2-0.8C19.1,17.9,18.8,17.5,18.2,16.9z"/>
		<path fill-rule="evenodd" clip-rule="evenodd" fill="#666666" d="M36.7,2.9C18.3,2.9,3.4,17.8,3.4,36.3
			c0,18.4,14.9,33.4,33.4,33.4c18.4,0,33.4-14.9,33.4-33.4C70.1,17.8,55.2,2.9,36.7,2.9z M67,31.1l-3.8,2.2l4-0.6l0.2,1.1l-5.8,0.9
			l-0.3-1.6l4-2.2l-4.2,0.7L61,30.4l5.8-0.9L67,31.1z M65.6,25.9l-4.8,3.7l-0.5-1.2l1.1-0.8l-0.6-1.5l-1.3,0.2L59,25.1l6-0.7
			L65.6,25.9z M55.3,12.2l2.4,1.9l-0.6,0.7l-1.4-1.1l-0.9,1.2l1.3,1.1l-0.6,0.7l-1.3-1.1l-1.6,2l-1-0.8L55.3,12.2z M47.8,17.7
			c0,0,4.4,1.7,2.4,6.8c-1.8,4.4-8.1,5.2-8.1,5.2l0.2-1.2c0,0,5.4-0.9,6.9-4.5c1.6-4-1.7-5.3-1.7-5.3L47.8,17.7z M41.2,34.3l0.2-1.1
			h6.2l-0.2,1.1H41.2z M47.2,35.7l-0.2,1.1h-6.2l0.2-1.1H47.2z M44,6.8c1.8,0,3.3,1.5,3.3,3.3c0,1.8-1.5,3.3-3.3,3.3
			c-1.8,0-3.3-1.5-3.3-3.3C40.7,8.3,42.1,6.8,44,6.8z M38.4,19.6c3.2-2.9,7.6-2.3,7.6-2.3l-0.4,1c0,0-1-0.2-2.4,1.2
			c-2.3,2.3-2.5,5.3-3,7.6c-0.5,2.2-1.6,10.8-1.8,11.7c-0.1,0.9-1.1,6.8-4.8,10.6c-3.6,3.8-8.6,3.3-8.6,3.3l0.3-1.2c0,0,2.4,0,4.6-4
			c1.1-2,1.8-3.7,2.9-13.4C34,24.5,35.7,22.1,38.4,19.6z M31,35.7l-0.2,1.1h-6.2l0.2-1.1H31z M25,34.3l0.2-1.1h6.2l-0.2,1.1H25z
			 M36.8,18.6l-0.8,0.7c0,0-6.1-3.4-9.5,2c-1.4,2.2-0.5,4.7,1,5.8c2.2,1.7,4.6,1.5,4.6,1.5l-0.2,1c0,0-2.1,0.1-3.9-0.8
			c-1.8-0.9-4.3-3.2-3-7c0.9-2.8,3.8-4.5,7-4.5C35,17.2,36.8,18.6,36.8,18.6z M33,6.5l0.2,1l-1.3,0.3l1,4.8l-1.2,0.3l-1-4.8
			l-1.3,0.3l-0.2-1L33,6.5z M24.7,9l3.1,3.1l-1.6-3.7l1-0.5l2.4,5.3l-1.5,0.7l-3.2-3.3l1.7,3.9l-1,0.5l-2.4-5.3L24.7,9z M21.4,10.7
			l0.5,0.7l-1.6,1.1l0.8,1.2l1.5-1l0.5,0.7l-1.5,1l1,1.4l1.7-1.2l0.5,0.7l-2.7,1.9l-3.4-4.8L21.4,10.7z M9.4,24.7l0.8,0.3l-0.6,1.9
			l1.4,0.5l0.6-1.7l0.8,0.3l-0.6,1.7l1.6,0.6l0.7-1.9l0.8,0.3l-1.1,3.1l-5.5-1.9L9.4,24.7z M7.5,31c0.1-0.5,0.3-0.9,0.6-1.1
			c0.3-0.2,0.8-0.3,1.3-0.2c0.4,0.1,0.8,0.2,1.1,0.5c0.3,0.3,0.4,0.7,0.3,1.4l-0.1,0.9l2.4,0.4L13,34.1l-5.8-0.9L7.5,31z M7,35.2
			l0.9,0l0,2l1.4,0l0-1.8l0.9,0l0,1.8l1.7,0l0-2l0.9,0l0.1,3.3l-5.9,0.1L7,35.2z M7.6,42.4c-0.1-0.7,0-1.3,0.4-1.6
			c0.4-0.3,1.1-0.6,2.1-0.8l0.4-0.1c0.4-0.1,0.8-0.1,1.2-0.1c0.4,0,0.7,0.1,1,0.4c0.3,0.2,0.5,0.6,0.6,1.2l0.4,2L8,44.4L7.6,42.4z
			 M9.9,49.4l3.1-3.1l-3.7,1.6l-0.5-1l5.3-2.4l0.7,1.5l-3.3,3.2l3.9-1.7l0.5,1l-5.3,2.4L9.9,49.4z M12.4,53.6l-0.7-1l4.9-3.2l0.7,1
			L12.4,53.6z M16.8,23.3l-4.5-0.9l3.6,2.3l-0.6,1l-5-3.1l0.9-1.4l4.3,0.8l-3.4-2.2l0.6-1l5,3.1L16.8,23.3z M14.2,16.8l1.4-1.5
			c0.5-0.5,1-0.7,1.6-0.6c0.5,0.1,1.1,0.6,1.9,1.3l0.3,0.3c0.3,0.3,0.6,0.6,0.8,0.9c0.2,0.3,0.3,0.7,0.3,1.1c0,0.4-0.2,0.8-0.6,1.2
			l-1.4,1.4L14.2,16.8z M18.9,44.9c1-2.9,4.6-4.2,7.8-3.4c2.1,0.6,3.1,1.9,3.1,1.9l-0.3,1c0,0-0.9-1.1-2.5-1.8c-2.5-1-5.6-0.1-7,2.4
			c-0.9,1.6-0.3,4.1,0.9,5c1.2,0.9,2.8,1.5,2.8,1.5l-0.2,1.1C23.5,52.6,16.7,51,18.9,44.9z M22.3,62.8l0.4-1.3l-1.4-0.9l-1,0.9
			l-1-0.7l4.5-4l1.4,0.9l-1.9,5.8L22.3,62.8z M29.9,62.9l-0.1,0.4c-0.2,0.4-0.3,0.8-0.6,1.1c-0.2,0.3-0.5,0.5-0.9,0.7
			C28,65.2,27.5,65.2,27,65l-1.9-0.7l2.1-5.5l1.9,0.7c0.7,0.3,1.1,0.7,1.2,1.2C30.4,61.3,30.2,62,29.9,62.9z M33.5,66.6l-1.4-0.2
			l-0.5-6l1.3,0.2l0.2,4.3l1.7-4l1.2,0.2L33.5,66.6z M36.7,49.1l0.7-0.9c0,0,4,3.9,8.7,3.9c4.2,0,6-3.7,6-5.5c0-1.6-0.7-4.9-5.5-4.9
			c-4.7,0-7.4,2.7-7.4,2.7l0.4-1.6c0,0,7.1-5.1,12.3-0.1c3.1,3,0.3,10.3-5.5,10.3C40.2,53.1,36.7,49.1,36.7,49.1z M37,66.9L36.9,61
			l1.2,0l0.1,5.9L37,66.9z M43.7,66c-0.3,0.3-0.8,0.5-1.4,0.6c-0.7,0.1-1.2,0-1.4-0.3c-0.3-0.3-0.5-0.7-0.6-1.3l1.2-0.2
			c0.1,0.3,0.1,0.6,0.2,0.7c0.1,0.1,0.3,0.2,0.6,0.2c0.2,0,0.3-0.1,0.4-0.2c0.1-0.1,0.1-0.3,0.1-0.5c0-0.3-0.3-0.5-0.7-0.7
			c-0.4-0.2-0.9-0.4-1.3-0.6c-0.5-0.3-0.8-0.7-0.8-1.2c-0.1-0.5,0-0.9,0.2-1.3c0.2-0.3,0.7-0.6,1.4-0.7c0.6-0.1,1,0,1.3,0.2
			c0.3,0.2,0.5,0.7,0.6,1.3l-1.2,0.2c0-0.3-0.1-0.5-0.2-0.6c-0.1-0.1-0.3-0.2-0.5-0.2c-0.4,0.1-0.6,0.3-0.5,0.7c0,0.3,0.4,0.6,1,0.8
			c0.6,0.3,1.1,0.5,1.3,0.6c0.2,0.1,0.4,0.5,0.5,1C44.2,65.2,44,65.7,43.7,66z M46.5,65.5L44.4,60l3-1.1l0.3,0.8l-1.8,0.7l0.5,1.3
			l1.7-0.6l0.3,0.8l-1.7,0.7l0.6,1.6l1.9-0.7l0.3,0.8L46.5,65.5z M53.6,62c-0.1-0.1-0.2-0.2-0.3-0.3c-0.1-0.1-0.2-0.2-0.3-0.4
			l-0.2-0.2l-0.1-0.2c-0.2-0.3-0.4-0.5-0.5-0.6c-0.2-0.1-0.4,0-0.7,0.2l-0.3,0.2l1.3,2.1l-1,0.6l-3.1-5l1.9-1.2
			c0.4-0.2,0.7-0.3,1.1-0.2c0.3,0.1,0.6,0.4,0.9,0.8c0.2,0.3,0.3,0.7,0.3,1c0,0.3-0.2,0.6-0.5,0.8c0.3-0.1,0.5-0.2,0.8-0.2
			c0.2,0,0.5,0.2,0.7,0.6c0.2,0.3,0.4,0.6,0.6,0.9c0.2,0.3,0.4,0.5,0.5,0.5L53.6,62z M54.4,19.2l4.2-4.1l0.8,0.9l-4.2,4.1L54.4,19.2
			z M56.1,20.9l4.8-3.4l0.9,1.4l-2.4,3.6l3.3-2.3l0.7,0.9l-4.8,3.4l-0.9-1.3l2.6-3.8l-3.5,2.4L56.1,20.9z M63.4,51.6l-4.2-2.5
			l-0.9,1.6l-0.8-0.5l1.6-2.6l5,3L63.4,51.6z M65.5,47.3l-6.1-0.4l0.4-1.2l1.3,0.1l0.5-1.6l-1.1-0.7l0.4-1.1l5,3.4L65.5,47.3z
			 M66.8,42.8l-5.7-1.1l0.2-1.2l5.7,1.1L66.8,42.8z M67,39.3c-0.3,0.3-0.8,0.4-1.5,0.3l0-1.2c0.4,0,0.7,0,0.8-0.1
			c0.2-0.1,0.2-0.2,0.3-0.4c0-0.3-0.1-0.5-0.4-0.6c-0.3-0.1-0.9-0.2-1.7-0.2c-0.8,0-1.4,0-1.7,0.1c-0.3,0.1-0.5,0.3-0.5,0.6
			c0,0.3,0.1,0.5,0.4,0.5c0.3,0.1,0.5,0.1,0.8,0.1l0,1.2c-0.8,0-1.3-0.2-1.6-0.5c-0.3-0.3-0.4-0.7-0.4-1.3c0-0.6,0.2-1.1,0.5-1.4
			c0.3-0.3,0.6-0.4,1-0.5c0.4-0.1,0.9-0.1,1.6,0c0.7,0,1.2,0.1,1.6,0.2c0.4,0.1,0.7,0.3,1,0.6c0.3,0.3,0.4,0.8,0.4,1.4
			C67.5,38.7,67.4,39.1,67,39.3z"/>
		<polygon fill-rule="evenodd" clip-rule="evenodd" fill="#666666" points="64.2,25.6 61.7,26 62.1,27 		"/>
		<path fill-rule="evenodd" clip-rule="evenodd" fill="#666666" d="M28.6,60.3L28,60.1l-1.5,3.8l0.6,0.2c0.3,0.1,0.6,0.1,0.8-0.2
			c0.2-0.2,0.5-0.7,0.7-1.4c0.3-0.7,0.4-1.1,0.4-1.5C29.2,60.7,29,60.5,28.6,60.3z"/>
		<polygon fill-rule="evenodd" clip-rule="evenodd" fill="#666666" points="62.5,44.7 62.2,45.8 64.7,46.1 		"/>
		<polygon fill-rule="evenodd" clip-rule="evenodd" fill="#666666" points="22,60 23,60.6 23.8,58.1 		"/>
		<path fill-rule="evenodd" clip-rule="evenodd" fill="#666666" d="M50.8,58.1c-0.2,0-0.3,0-0.5,0.1l-0.5,0.3l0.9,1.4l0.5-0.3
			c0.2-0.1,0.3-0.3,0.3-0.5c0-0.2-0.1-0.4-0.2-0.6C51.1,58.3,51,58.2,50.8,58.1z"/>
		<path fill-rule="evenodd" clip-rule="evenodd" fill="#666666" d="M12,41.1c-0.3-0.1-0.8,0-1.6,0.1c-0.7,0.1-1.2,0.3-1.5,0.4
			c-0.3,0.2-0.4,0.4-0.3,0.8L8.7,43l4-0.8l-0.1-0.6C12.5,41.3,12.3,41.1,12,41.1z"/>
		<path fill-rule="evenodd" clip-rule="evenodd" fill="#666666" d="M9.3,31c-0.3,0-0.5,0-0.7,0c-0.2,0.1-0.3,0.2-0.3,0.5l-0.1,0.6
			l1.6,0.3l0.1-0.7c0-0.2,0-0.3-0.2-0.5C9.7,31.1,9.6,31,9.3,31z"/>
	</g>
</g>
</svg>
