<?xml version="1.0" encoding="utf-8"?>
<!-- Generator: Adobe Illustrator 18.0.0, SVG Export Plug-In . SVG Version: 6.00 Build 0)  -->
<!DOCTYPE svg PUBLIC "-//W3C//DTD SVG 1.1//EN" "http://www.w3.org/Graphics/SVG/1.1/DTD/svg11.dtd">
<svg version="1.1" id="Layer_1" xmlns="http://www.w3.org/2000/svg" xmlns:xlink="http://www.w3.org/1999/xlink" x="0px" y="0px"
	 viewBox="0 0 120 50" enable-background="new 0 0 120 50" xml:space="preserve" width="120" height="50">
<g>
	<g>
		<path fill="#B3B3B3" d="M7.4,33.1c0,1.7,0,4-2.1,5.6L3.8,40l-0.6-0.7L3.5,39c0.5-0.5,1.3-1,1.3-2.9V19.6c0-0.2-0.1-0.6-0.4-0.6
			L3,18.6v-0.4c0,0,1.4-0.6,2.2-1c0.7-0.3,2-1,2-1l0.4,0.4L7.4,33.1z M6.1,12.8c-1,0-1.7-0.8-1.7-1.7s0.8-1.8,1.7-1.8
			c1,0,1.7,0.7,1.7,1.8C7.9,12.1,7.1,12.8,6.1,12.8z"/>
		<path fill="#B3B3B3" d="M19.1,33.5c-0.4,0.1-1.4,0.4-1.6,0.4c-0.6,0-0.5-0.4-0.5-1.5v-0.9h-0.1c-0.4,1-1.5,2.4-3.6,2.4
			c-2.6,0-3.7-1.8-3.7-4.4c0-0.3,0,0.1,0-0.3c0-4.5,3.7-5.6,6.4-5.9l0.9-0.1v-2.5c0-1.3-0.2-3-2.2-3c-1.1,0-1.9,0.5-2.5,1.1
			c-0.1,0.1-0.2,0.5-0.3,0.7l-0.8,2.2l-0.6-0.1l0.4-3.7c0.7-0.6,2.4-1.3,4.1-1.3c3.3,0,4.3,1.7,4.3,5.3v8.8c0,1.5,0.1,1.7,1,1.9
			c0,0,0.6,0.1,0.8,0.2V33C20.4,33.2,19.7,33.3,19.1,33.5z M16.9,24.4c-0.2,0-0.8,0.1-0.8,0.1c-1.8,0.2-4.1,1-4.1,4.6
			c0,0.5,0-0.2,0,0.4s0.1,3,2.1,3c1.9,0,2.7-2.5,2.8-2.9V24.4z"/>
		<path fill="#B3B3B3" d="M40.5,33.5c-0.9,0-3.2,0.1-3.2,0.1v-0.4l1.6-0.6c0.2-0.1,0.3-0.3,0.3-0.6V21c0-1.9,0.1-3-2-3
			c-1.4,0-2.4,1.3-2.8,1.9c0,0.1,0,0.3,0,0.4v11.6c0,0.3,0.1,0.5,0.3,0.6l1.8,0.6v0.4c0,0-2.3-0.1-3.3-0.1s-3,0.1-3,0.1v-0.4
			l1.4-0.6c0.2-0.1,0.3-0.3,0.3-0.6v-11c0-1.6,0.2-3-1.7-3c-1.7,0-2.6,1.2-3.1,1.8v12.2c0,0.2,0,0.5,0.3,0.6l1.8,0.6v0.4
			c0,0-2.3-0.1-3.4-0.1c-0.9,0-3.1,0.1-3.1,0.1v-0.4l1.5-0.5c0.3-0.1,0.3-0.4,0.3-0.6V19.8c0-0.6-0.1-1-0.8-1.2l-1.1-0.3V18
			c0,0,1.3-0.5,2-0.8s1.9-0.9,1.9-0.9l0.4,0.3v2.1c0.8-0.9,1.8-2.2,4-2.2c2,0,2.9,0.9,3.3,2.4c0.6-0.9,2.1-2.4,4.1-2.4
			c2.4,0,3.5,1.3,3.5,4v11.6c0,0.3,0.1,0.5,0.3,0.6l1.9,0.6v0.4C43.9,33.6,41.5,33.5,40.5,33.5z"/>
		<path fill="#B3B3B3" d="M54,24.6h-7.3v1.6c0,4.3,1.1,6.7,3.3,6.7c1.1,0,2.2-0.4,2.5-1.5l0.7-2.5h0.5L53.5,33
			c-0.9,0.5-2.3,0.9-3.5,0.9c-3.6,0-6.1-2.5-6.1-7.7c0-0.6,0-0.6,0-1.2c0-4.4,2-8.6,5.6-8.6c2.4,0,4.8,1.1,4.8,7.7L54,24.6z
			 M49.4,17.6c-2.4,0-2.6,4.7-2.6,5.9h5C51.8,22.3,51.9,17.6,49.4,17.6z"/>
		<path fill="#B3B3B3" d="M60.1,33.9c-2.5,0-3.5-0.8-3.6-0.8v-4.5H57l0.6,2.7c0.1,0.2,0.2,0.5,0.4,0.7c0.5,0.4,1.5,0.6,2,0.6
			c2.2,0,2.9-1.7,2.9-2.8c0-1.8-1.7-2.4-3.4-3.6c-1.7-1.3-3.5-2.4-3.5-5.3c0-2.5,1.8-4.6,4.5-4.6c1.2,0,2.4,0.3,3.4,0.8v4.7h-0.5
			l-0.7-3.1c0-0.2-0.1-0.4-0.4-0.7c-0.5-0.4-1.3-0.5-1.9-0.5c-1.6,0-2.5,1-2.5,2.4c0,1.6,1.5,2.9,2.8,3.6c3.2,1.8,4,3.3,4,5.5
			C64.8,31.8,62.7,33.9,60.1,33.9z"/>
	</g>
	<g>
		<path fill="#666666" d="M77.8,18.5h-2.1c0.5,0.6,0.9,1.8,0.9,3.2v0.5c0,2.1-0.8,5.6-5.3,5.6c-0.2,0-0.5,0-0.7-0.1
			c-0.9,0.2-1.8,0.7-1.8,1.5c0,1.1,1.6,1.2,3.5,1.4c2.1,0.2,5.1,0.7,5.1,4.5c0,3-1.8,5.7-6.2,5.7c-3,0-5.5-1.3-5.5-4.5
			c0-2.6,1.8-3.6,2.7-4c-0.7-0.3-1.4-1-1.4-2.1c0-1.9,1.7-2.6,2.5-2.8c-1.8-0.6-2.9-2.4-2.9-4.9v-0.4c0-2.8,1.3-5.7,5.1-5.7
			c1.5,0,2.5,0.4,2.9,0.8h3.5L77.8,18.5z M72.1,33.2c-0.9-0.1-1.8-0.2-2.6-0.4c0,0-1.8,0.9-1.8,3.2c0,2.1,1.2,3.7,3.7,3.7
			c3,0,4.3-1.5,4.3-3.6C75.7,33.7,74,33.4,72.1,33.2z M74,21.9c0-2.5-0.5-4.5-2.4-4.5c-2,0-2.4,2.8-2.4,4.7v0.3c0,2.9,1,4.5,2.5,4.5
			c2.1,0,2.3-3.5,2.3-4.8V21.9L74,21.9z"/>
		<path fill="#666666" d="M84.1,33.9c-4.4,0-6-4.3-6-8.4v-0.8c0-4.1,1.4-8.4,5.9-8.4c4.4,0,5.9,4.3,5.9,8.4v0.8
			C90,29.7,88.6,33.9,84.1,33.9z M87,24.7c0-2.4,0-7.2-3-7.2c-2.9,0-3.1,4.8-3.1,7.2v1c0,2.4,0.2,7.2,3.1,7.2s3-4.8,3-7.2V24.7
			L87,24.7z"/>
		<path fill="#666666" d="M97.3,33.9c-4.4,0-6-4.3-6-8.4v-0.8c0-4.1,1.4-8.4,5.9-8.4c4.4,0,5.9,4.3,5.9,8.4v0.8
			C103.1,29.7,101.7,33.9,97.3,33.9z M100.2,24.7c0-2.4,0-7.2-3-7.2c-2.9,0-3.1,4.8-3.1,7.2v1c0,2.4,0.2,7.2,3.1,7.2s3-4.8,3-7.2
			V24.7L100.2,24.7z"/>
		<path fill="#666666" d="M114.9,33.5c-0.5,0.1-1.3,0.4-1.5,0.4c-0.6,0-0.6-0.4-0.6-1v-1.1c0,0,0,0,0,0.1c-0.8,1.1-2,2-3.5,2
			c-1.9,0-4.8-0.8-4.8-7.7c0-0.5,0-0.1,0-0.7c0-3,0.9-8.9,6-8.9c1.3,0,2.3,0.7,2.3,0.7V13c0-0.6-0.1-1-0.8-1.2l-1.2-0.3v-0.4
			c0.3-0.1,1.5-0.6,2.2-1c0.8-0.4,2-1,2-1l0.4,0.2v20.9c0,1.5,0.1,2,1,2.2c0,0,0.4,0.1,0.6,0.1v0.4C117,33.1,115.5,33.4,114.9,33.5z
			 M112.8,19.7c-0.2-0.5-0.7-2-2.3-2c-3,0-3.2,6-3.2,7.9c0,0.7,0,0.1,0,0.4c0,3.5,0.8,6.3,2.7,6.3c1.6,0,2.3-1.1,2.8-1.9V19.7z"/>
	</g>
</g>
</svg>
