<?xml version="1.0" encoding="utf-8"?>
<!-- Generator: Adobe Illustrator 18.1.1, SVG Export Plug-In . SVG Version: 6.00 Build 0)  -->
<!DOCTYPE svg PUBLIC "-//W3C//DTD SVG 1.1//EN" "http://www.w3.org/Graphics/SVG/1.1/DTD/svg11.dtd">
<svg version="1.1" id="Layer_1" xmlns="http://www.w3.org/2000/svg" xmlns:xlink="http://www.w3.org/1999/xlink" x="0px" y="0px"
	 width="30px" height="150px" viewBox="0 0 30 150" enable-background="new 0 0 30 150" xml:space="preserve">
<g>
	<path fill="#FFFFFF" d="M71-109C71-109,71-109,71-109l-480,0c0,0,0,0,0,0v-51c0,0,0,0,0,0H71c0,0,0,0,0,0V-109z"/>
	<path fill="none" stroke="#D1D1D1" stroke-miterlimit="10" d="M71.5-109.5C71.5-109.5,71.5-109.5,71.5-109.5l-480,0c0,0,0,0,0,0
		v-51c0,0,0,0,0,0h480c0,0,0,0,0,0V-109.5z"/>
</g>
<g>
	<path fill="#FFFFFF" d="M15,29.5C7,29.5,0.5,23,0.5,15S7,0.5,15,0.5S29.5,7,29.5,15S23,29.5,15,29.5z"/>
	<g>
		<path fill="#BAB9BB" d="M15,1c7.7,0,14,6.3,14,14s-6.3,14-14,14S1,22.7,1,15S7.3,1,15,1 M15,0C6.7,0,0,6.7,0,15
			c0,8.3,6.7,15,15,15c8.3,0,15-6.7,15-15C30,6.7,23.3,0,15,0L15,0z"/>
	</g>
</g>
<g>
	<path fill="#FFFFFF" d="M15,109.5C7,109.5,0.5,103,0.5,95S7,80.5,15,80.5S29.5,87,29.5,95S23,109.5,15,109.5z"/>
	<path fill="#BAB9BB" d="M15,81c7.7,0,14,6.3,14,14s-6.3,14-14,14S1,102.7,1,95S7.3,81,15,81 M15,80C6.7,80,0,86.7,0,95
		c0,8.3,6.7,15,15,15c8.3,0,15-6.7,15-15C30,86.7,23.3,80,15,80L15,80z"/>
</g>
<g>
	<path fill="#FFFFFF" d="M15,69.5C7,69.5,0.5,63,0.5,55S7,40.5,15,40.5S29.5,47,29.5,55S23,69.5,15,69.5z"/>
	<g>
		<path fill="#33ABD8" d="M15,41c7.7,0,14,6.3,14,14s-6.3,14-14,14S1,62.7,1,55S7.3,41,15,41 M15,40C6.7,40,0,46.7,0,55
			c0,8.3,6.7,15,15,15c8.3,0,15-6.7,15-15C30,46.7,23.3,40,15,40L15,40z"/>
	</g>
</g>
<g>
	<path fill="#FFFFFF" d="M15,68.5C7.6,68.5,1.5,62.4,1.5,55S7.6,41.5,15,41.5c7.4,0,13.5,6.1,13.5,13.5S22.4,68.5,15,68.5z"/>
	<g>
		<path fill="#DFDFDF" d="M15,42c7.2,0,13,5.8,13,13s-5.8,13-13,13S2,62.2,2,55S7.8,42,15,42 M15,41C7.3,41,1,47.3,1,55
			c0,7.7,6.3,14,14,14c7.7,0,14-6.3,14-14C29,47.3,22.7,41,15,41L15,41z"/>
	</g>
</g>
<g>
	<path fill="#FFFFFF" d="M15,149.5c-8,0-14.5-6.5-14.5-14.5S7,120.5,15,120.5S29.5,127,29.5,135S23,149.5,15,149.5z"/>
	<g>
		<path fill="#33ABD8" d="M15,121c7.7,0,14,6.3,14,14s-6.3,14-14,14s-14-6.3-14-14S7.3,121,15,121 M15,120c-8.3,0-15,6.7-15,15
			c0,8.3,6.7,15,15,15c8.3,0,15-6.7,15-15C30,126.7,23.3,120,15,120L15,120z"/>
	</g>
</g>
<g>
	<path fill="#FFFFFF" d="M15,148.5c-7.4,0-13.5-6.1-13.5-13.5s6.1-13.5,13.5-13.5c7.4,0,13.5,6.1,13.5,13.5S22.4,148.5,15,148.5z"/>
	<g>
		<path fill="#DFDFDF" d="M15,122c7.2,0,13,5.8,13,13c0,7.2-5.8,13-13,13s-13-5.8-13-13C2,127.8,7.8,122,15,122 M15,121
			c-7.7,0-14,6.3-14,14c0,7.7,6.3,14,14,14c7.7,0,14-6.3,14-14C29,127.3,22.7,121,15,121L15,121z"/>
	</g>
</g>
<circle fill="#A3A467" cx="15" cy="95" r="5"/>
<circle fill="#A3A467" cx="15" cy="135" r="5"/>
</svg>
